# This file uses centimeters as units for non-parametric coordinates.

mtllib Enemy2LeftArm.mtl
g default
v -0.133499 0.607024 -1.289993
v -0.050491 0.134424 -1.289993
v 0.033508 0.149124 -1.182999
v 0.033508 0.149124 -1.182999
v -0.050491 0.621724 -1.182999
v -0.133499 0.607024 -1.289993
v 0.437607 0.220524 -1.289993
v 0.354309 0.693024 -1.289993
v 0.270905 0.678324 -1.182999
v 0.270905 0.678324 -1.182999
v 0.354202 0.205724 -1.182999
v 0.437607 0.220524 -1.289993
v 0.270905 0.678324 -1.677994
v 0.354202 0.205724 -1.677994
v 0.033508 0.149124 -1.677994
v 0.033508 0.149124 -1.677994
v -0.050491 0.621724 -1.677994
v 0.270905 0.678324 -1.677994
v -0.050491 0.621724 -1.182999
v 0.033508 0.149124 -1.182999
v 0.354202 0.205724 -1.182999
v 0.354202 0.205724 -1.182999
v 0.270905 0.678324 -1.182999
v -0.050491 0.621724 -1.182999
v -0.050491 0.134424 -1.565002
v -0.050491 0.134424 -1.289993
v -0.133499 0.607024 -1.289993
v -0.133499 0.607024 -1.565002
v 0.354309 0.693024 -1.565002
v 0.354309 0.693024 -1.289993
v 0.437607 0.220524 -1.289993
v 0.437607 0.220524 -1.565002
v 0.033508 0.149124 -1.677994
v -0.050491 0.134424 -1.565002
v -0.133499 0.607024 -1.565002
v -0.133499 0.607024 -1.565002
v -0.050491 0.621724 -1.677994
v 0.033508 0.149124 -1.677994
v 0.270905 0.678324 -1.677994
v 0.354309 0.693024 -1.565002
v 0.437607 0.220524 -1.565002
v 0.437607 0.220524 -1.565002
v 0.354202 0.205724 -1.677994
v 0.270905 0.678324 -1.677994
v -0.189499 0.552624 -0.998993
v -0.189499 1.205624 -0.998993
v -0.189499 0.552624 -1.828003
v -0.189499 1.205624 -0.998993
v -0.189499 1.205624 -1.216995
v -0.189499 0.552624 -1.828003
v -0.189499 1.205624 -1.216995
v -0.189499 0.710224 -1.828003
v -0.189499 0.552624 -1.828003
v 0.523605 1.205624 -1.216995
v -0.189499 1.205624 -1.216995
v -0.189499 1.205624 -0.998993
v -0.189499 1.205624 -0.998993
v 0.523605 1.205624 -0.998993
v 0.523605 1.205624 -1.216995
v 0.523605 1.205624 -0.998993
v 0.523605 0.552624 -0.998993
v 0.523605 1.205624 -1.216995
v 0.523605 0.552624 -1.828003
v 0.523605 0.710224 -1.828003
v 0.523605 0.552624 -0.998993
v 0.523605 0.710224 -1.828003
v 0.523605 1.205624 -1.216995
v -0.189499 0.552624 -1.828003
v 0.523605 0.552624 -1.828003
v 0.523605 0.552624 -0.998993
v -0.189499 0.552624 -0.998993
v 0.523605 0.710224 -1.828003
v 0.523605 0.552624 -1.828003
v -0.189499 0.552624 -1.828003
v -0.189499 0.710224 -1.828003
v -0.189499 1.205624 -0.998993
v -0.189499 0.552624 -0.998993
v 0.523605 0.552624 -0.998993
v 0.523605 1.205624 -0.998993
v 0.523605 0.710224 -1.828003
v -0.189499 0.710224 -1.828003
v -0.189499 1.205624 -1.216995
v -0.189499 1.205624 -1.216995
v 0.523605 1.205624 -1.216995
v 0.523605 0.710224 -1.828003
v -0.120499 0.259324 -1.718002
v -0.183502 -0.547076 -1.783997
v -0.183502 -0.547076 -1.087997
v -0.183502 -0.547076 -1.087997
v -0.120499 0.259324 -1.154007
v -0.120499 0.259324 -1.718002
v 0.559204 0.259324 -1.718002
v -0.120499 0.259324 -1.718002
v -0.120499 0.259324 -1.154007
v 0.559204 0.259324 -1.154007
v 0.622101 -0.547076 -1.783997
v 0.559204 0.259324 -1.718002
v 0.559204 0.259324 -1.154007
v 0.559204 0.259324 -1.154007
v 0.622101 -0.547076 -1.087997
v 0.622101 -0.547076 -1.783997
v -0.183502 -0.547076 -1.783997
v 0.622101 -0.547076 -1.783997
v 0.622101 -0.547076 -1.087997
v -0.183502 -0.547076 -1.087997
v 0.559204 0.259324 -1.718002
v 0.622101 -0.547076 -1.783997
v -0.183502 -0.547076 -1.783997
v -0.183502 -0.547076 -1.783997
v -0.120499 0.259324 -1.718002
v 0.559204 0.259324 -1.718002
v -0.120499 0.259324 -1.154007
v -0.183502 -0.547076 -1.087997
v 0.622101 -0.547076 -1.087997
v 0.622101 -0.547076 -1.087997
v 0.559204 0.259324 -1.154007
v -0.120499 0.259324 -1.154007
v -0.153488 -0.534076 -1.570999
v -0.153488 -1.124376 -1.570999
v -0.153488 -1.124376 -1.371002
v -0.153488 -1.124376 -1.371002
v -0.153488 -0.534076 -1.371002
v -0.153488 -0.534076 -1.570999
v 0.601212 -1.124376 -1.570999
v 0.601212 -0.534076 -1.570999
v 0.601212 -0.534076 -1.371002
v 0.601212 -0.534076 -1.371002
v 0.601212 -1.124376 -1.371002
v 0.601212 -1.124376 -1.570999
v -0.153488 -1.124376 -1.570999
v 0.601212 -1.124376 -1.570999
v 0.601212 -1.124376 -1.371002
v -0.153488 -1.124376 -1.371002
v 0.601212 -0.534076 -1.763000
v 0.601212 -0.794076 -1.763000
v -0.153488 -0.794076 -1.763000
v -0.153488 -0.794076 -1.763000
v -0.153488 -0.534076 -1.763000
v 0.601212 -0.534076 -1.763000
v -0.153488 -0.534076 -1.371002
v -0.153488 -1.124376 -1.371002
v 0.601212 -1.124376 -1.371002
v 0.601212 -0.534076 -1.371002
v -0.153488 -0.534076 -1.763000
v -0.153488 -0.794076 -1.763000
v -0.153488 -0.794076 -1.763000
v -0.153488 -1.124376 -1.570999
v -0.153488 -0.534076 -1.570999
v 0.601212 -0.794076 -1.763000
v 0.601212 -0.534076 -1.763000
v 0.601212 -0.534076 -1.570999
v 0.601212 -1.124376 -1.570999
v 0.601212 -0.794076 -1.763000
v 0.601212 -0.794076 -1.763000
v 0.601212 -1.124376 -1.570999
v -0.153488 -1.124376 -1.570999
v -0.153488 -0.794076 -1.763000
v 0.116302 -0.633876 -1.110001
v 0.331711 -0.633876 -1.110001
v 0.331711 -0.431276 -1.110001
v 0.116302 -0.431276 -1.110001
v 0.116302 -0.431276 -1.373001
v 0.116302 -0.914076 -1.373001
v 0.116302 -0.633876 -1.110001
v 0.116302 -0.633876 -1.110001
v 0.116302 -0.431276 -1.110001
v 0.116302 -0.431276 -1.373001
v 0.331711 -0.633876 -1.110001
v 0.331711 -0.914076 -1.373001
v 0.331711 -0.431276 -1.373001
v 0.331711 -0.431276 -1.373001
v 0.331711 -0.431276 -1.110001
v 0.331711 -0.633876 -1.110001
v 0.116302 -0.914076 -1.373001
v 0.331711 -0.914076 -1.373001
v 0.331711 -0.633876 -1.110001
v 0.116302 -0.633876 -1.110001
vt 0.233325 0.537345
vt 0.206700 0.537345
vt 0.206700 0.500345
vt 0.206700 0.500345
vt 0.233325 0.500345
vt 0.233325 0.537345
vt 0.206700 0.800633
vt 0.233325 0.800633
vt 0.233325 0.749833
vt 0.233325 0.749833
vt 0.206700 0.749833
vt 0.206700 0.800633
vt 0.233325 0.749745
vt 0.206700 0.749745
vt 0.206700 0.625445
vt 0.206700 0.625445
vt 0.233325 0.621973
vt 0.233325 0.749745
vt 0.233325 0.500345
vt 0.206700 0.500345
vt 0.206700 0.375345
vt 0.206700 0.375345
vt 0.233325 0.375345
vt 0.233325 0.500345
vt 0.206700 0.564045
vt 0.206700 0.537345
vt 0.233325 0.537345
vt 0.233325 0.564045
vt 0.233325 0.874233
vt 0.233325 0.800633
vt 0.206700 0.800633
vt 0.206700 0.874233
vt 0.206700 0.625445
vt 0.206700 0.564045
vt 0.233325 0.564045
vt 0.233325 0.564045
vt 0.233325 0.621973
vt 0.206700 0.625445
vt 0.233325 0.749833
vt 0.233325 0.749833
vt 0.206700 0.749833
vt 0.206700 0.749833
vt 0.206700 0.749833
vt 0.233325 0.749833
vt 0.233325 0.500345
vt 0.263625 0.500345
vt 0.233325 0.621973
vt 0.263625 0.500345
vt 0.263625 0.621973
vt 0.233325 0.621973
vt 0.263625 0.621973
vt 0.241500 0.625445
vt 0.233325 0.621973
vt 0.146850 0.213500
vt 0.146850 0.090600
vt 0.160875 0.090600
vt 0.160875 0.090600
vt 0.160875 0.213500
vt 0.146850 0.213500
vt 0.263625 0.749833
vt 0.233325 0.749833
vt 0.263625 0.874233
vt 0.233325 0.874233
vt 0.241500 0.874233
vt 0.233325 0.749833
vt 0.241500 0.874233
vt 0.263625 0.874233
vt 0.169828 0.500429
vt 0.169828 0.374998
vt 0.184997 0.374998
vt 0.184997 0.500429
vt 0.241500 0.749745
vt 0.233325 0.749745
vt 0.233325 0.625445
vt 0.241500 0.625445
vt 0.263625 0.500345
vt 0.233325 0.500345
vt 0.233325 0.375345
vt 0.263625 0.375345
vt 0.241500 0.749745
vt 0.241500 0.625445
vt 0.263625 0.625445
vt 0.263625 0.625445
vt 0.263625 0.749745
vt 0.241500 0.749745
vt 0.206700 0.625445
vt 0.169950 0.625445
vt 0.169950 0.500345
vt 0.169950 0.500345
vt 0.206700 0.500345
vt 0.206700 0.625445
vt 0.146850 0.090300
vt 0.146850 0.213800
vt 0.193650 0.213800
vt 0.193650 0.090300
vt 0.169950 0.874233
vt 0.206700 0.874233
vt 0.206700 0.749833
vt 0.206700 0.749833
vt 0.169950 0.749833
vt 0.169950 0.874233
vt 0.556050 0.235500
vt 0.556050 0.357700
vt 0.601800 0.357700
vt 0.601800 0.235500
vt 0.206700 0.749745
vt 0.169950 0.749745
vt 0.169950 0.625445
vt 0.169950 0.625445
vt 0.206700 0.625445
vt 0.206700 0.749745
vt 0.206700 0.500345
vt 0.169950 0.500345
vt 0.169950 0.375345
vt 0.169950 0.375345
vt 0.206700 0.375345
vt 0.206700 0.500345
vt 0.332325 0.102300
vt 0.332325 0.029300
vt 0.323025 0.029300
vt 0.323025 0.029300
vt 0.323025 0.102300
vt 0.332325 0.102300
vt 0.384300 0.035700
vt 0.384300 0.102400
vt 0.392775 0.102400
vt 0.392775 0.102400
vt 0.392775 0.035700
vt 0.384300 0.035700
vt 0.319500 0.111800
vt 0.319500 0.018500
vt 0.310200 0.018500
vt 0.310200 0.111800
vt 0.339975 0.116400
vt 0.327900 0.116400
vt 0.327900 0.209700
vt 0.327900 0.209700
vt 0.339975 0.209700
vt 0.339975 0.116400
vt 0.341550 0.136000
vt 0.341550 0.209000
vt 0.376500 0.209000
vt 0.376500 0.136000
vt 0.341175 0.102300
vt 0.341175 0.070100
vt 0.341175 0.070100
vt 0.332325 0.029300
vt 0.332325 0.102300
vt 0.376125 0.073000
vt 0.376125 0.102400
vt 0.384300 0.102400
vt 0.384300 0.035700
vt 0.376125 0.073000
vt 0.327900 0.116400
vt 0.310200 0.116400
vt 0.310200 0.209700
vt 0.327900 0.209700
vt 0.362775 0.091000
vt 0.362775 0.064400
vt 0.372150 0.064400
vt 0.372150 0.091000
vt 0.361275 0.131800
vt 0.345000 0.091000
vt 0.362775 0.091000
vt 0.362775 0.091000
vt 0.369600 0.108100
vt 0.361275 0.131800
vt 0.362775 0.064400
vt 0.345000 0.064400
vt 0.361275 0.023500
vt 0.361275 0.023500
vt 0.369600 0.047200
vt 0.362775 0.064400
vt 0.345000 0.091000
vt 0.345000 0.064400
vt 0.362775 0.064400
vt 0.362775 0.091000
vn -0.770216 -0.135281 0.623270
vn -0.770216 -0.135282 0.623270
vn -0.770216 -0.135281 0.623270
vn -0.773027 -0.136417 0.619532
vn -0.773027 -0.136417 0.619532
vn -0.773027 -0.136417 0.619532
vn 0.773050 0.136286 0.619532
vn 0.773050 0.136286 0.619532
vn 0.773050 0.136286 0.619532
vn 0.772994 0.136247 0.619610
vn 0.772994 0.136247 0.619610
vn 0.772994 0.136247 0.619610
vn 0.000000 0.000000 -1.000000
vn 0.000000 0.000000 -1.000000
vn 0.000000 0.000000 -1.000000
vn 0.000000 0.000000 -1.000000
vn 0.000000 0.000000 -1.000000
vn 0.000000 0.000000 -1.000000
vn 0.000000 0.000000 1.000000
vn 0.000000 0.000000 1.000000
vn 0.000000 0.000000 1.000000
vn 0.000000 0.000000 1.000000
vn 0.000000 0.000000 1.000000
vn 0.000000 0.000000 1.000000
vn -0.984784 -0.173785 0.000000
vn -0.984784 -0.173785 0.000000
vn -0.984784 -0.173785 0.000000
vn -0.984784 -0.173785 0.000000
vn -0.984784 -0.173785 0.000000
vn -0.984784 -0.173785 0.000000
vn 0.984813 0.173619 0.000000
vn 0.984813 0.173619 0.000000
vn 0.984813 0.173619 0.000000
vn 0.984813 0.173619 0.000000
vn 0.984813 0.173619 0.000000
vn 0.984813 0.173619 0.000000
vn -0.788293 -0.139111 -0.599368
vn -0.788293 -0.139111 -0.599368
vn -0.788293 -0.139111 -0.599368
vn -0.788293 -0.139111 -0.599368
vn -0.788293 -0.139111 -0.599368
vn -0.788293 -0.139111 -0.599368
vn 0.788317 0.138977 -0.599368
vn 0.788316 0.138977 -0.599368
vn 0.788316 0.138977 -0.599368
vn 0.788264 0.138939 -0.599447
vn 0.788264 0.138939 -0.599447
vn 0.788264 0.138939 -0.599447
vn -1.000000 0.000000 0.000000
vn -1.000000 0.000000 0.000000
vn -1.000000 0.000000 0.000000
vn -1.000000 0.000000 0.000000
vn -1.000000 0.000000 0.000000
vn -1.000000 0.000000 0.000000
vn -1.000000 0.000000 0.000000
vn -1.000000 0.000000 0.000000
vn -1.000000 0.000000 0.000000
vn 0.000000 1.000000 0.000000
vn 0.000000 1.000000 0.000000
vn 0.000000 1.000000 0.000000
vn 0.000000 1.000000 0.000000
vn 0.000000 1.000000 0.000000
vn 0.000000 1.000000 0.000000
vn 1.000000 0.000000 0.000000
vn 1.000000 0.000000 0.000000
vn 1.000000 0.000000 0.000000
vn 1.000000 0.000000 0.000000
vn 1.000000 0.000000 0.000000
vn 1.000000 0.000000 0.000000
vn 1.000000 0.000000 0.000000
vn 1.000000 0.000000 0.000000
vn 1.000000 0.000000 0.000000
vn 0.000000 -1.000000 0.000000
vn 0.000000 -1.000000 0.000000
vn 0.000000 -1.000000 0.000000
vn 0.000000 -1.000000 0.000000
vn 0.000000 -1.000000 0.000000
vn 0.000000 -1.000000 0.000000
vn 0.000000 0.000000 -1.000000
vn 0.000000 0.000000 -1.000000
vn 0.000000 0.000000 -1.000000
vn 0.000000 0.000000 -1.000000
vn 0.000000 0.000000 -1.000000
vn 0.000000 0.000000 -1.000000
vn 0.000000 0.000000 1.000000
vn 0.000000 0.000000 1.000000
vn 0.000000 0.000000 1.000000
vn 0.000000 0.000000 1.000000
vn 0.000000 0.000000 1.000000
vn 0.000000 0.000000 1.000000
vn 0.000000 0.776910 -0.629611
vn 0.000000 0.776910 -0.629611
vn 0.000000 0.776910 -0.629611
vn 0.000000 0.776910 -0.629611
vn 0.000000 0.776910 -0.629611
vn 0.000000 0.776910 -0.629611
vn -0.996972 0.077765 0.000000
vn -0.996972 0.077765 0.000000
vn -0.996972 0.077765 0.000000
vn -0.996972 0.077765 0.000000
vn -0.996972 0.077765 0.000000
vn -0.996972 0.077765 0.000000
vn 0.000000 1.000000 0.000000
vn 0.000000 1.000000 0.000000
vn 0.000000 1.000000 0.000000
vn 0.000000 1.000000 0.000000
vn 0.000000 1.000000 0.000000
vn 0.000000 1.000000 0.000000
vn 0.996972 0.077765 0.000000
vn 0.996972 0.077765 0.000000
vn 0.996972 0.077765 0.000000
vn 0.996972 0.077765 0.000000
vn 0.996972 0.077765 0.000000
vn 0.996972 0.077765 0.000000
vn 0.000000 -1.000000 0.000000
vn 0.000000 -1.000000 0.000000
vn 0.000000 -1.000000 0.000000
vn 0.000000 -1.000000 0.000000
vn 0.000000 -1.000000 0.000000
vn 0.000000 -1.000000 0.000000
vn 0.000000 0.081450 -0.996677
vn 0.000000 0.081450 -0.996677
vn 0.000000 0.081450 -0.996677
vn 0.000000 0.081450 -0.996677
vn 0.000000 0.081450 -0.996677
vn 0.000000 0.081450 -0.996677
vn 0.000000 0.081450 0.996677
vn 0.000000 0.081450 0.996677
vn 0.000000 0.081450 0.996677
vn 0.000000 0.081450 0.996677
vn 0.000000 0.081450 0.996677
vn 0.000000 0.081450 0.996677
vn -1.000000 0.000000 0.000000
vn -1.000000 0.000000 0.000000
vn -1.000000 0.000000 0.000000
vn -1.000000 0.000000 0.000000
vn -1.000000 0.000000 0.000000
vn -1.000000 0.000000 0.000000
vn 1.000000 0.000000 0.000000
vn 1.000000 0.000000 0.000000
vn 1.000000 0.000000 0.000000
vn 1.000000 0.000000 0.000000
vn 1.000000 0.000000 0.000000
vn 1.000000 0.000000 0.000000
vn 0.000000 -1.000000 0.000000
vn 0.000000 -1.000000 0.000000
vn 0.000000 -1.000000 0.000000
vn 0.000000 -1.000000 0.000000
vn 0.000000 -1.000000 0.000000
vn 0.000000 -1.000000 0.000000
vn 0.000000 0.000000 -1.000000
vn 0.000000 0.000000 -1.000000
vn 0.000000 0.000000 -1.000000
vn 0.000000 0.000000 -1.000000
vn 0.000000 0.000000 -1.000000
vn 0.000000 0.000000 -1.000000
vn 0.000000 0.000000 1.000000
vn 0.000000 0.000000 1.000000
vn 0.000000 0.000000 1.000000
vn 0.000000 0.000000 1.000000
vn 0.000000 0.000000 1.000000
vn 0.000000 0.000000 1.000000
vn -1.000000 0.000000 0.000000
vn -1.000000 0.000000 0.000000
vn -1.000000 0.000000 0.000000
vn -1.000000 0.000000 0.000000
vn -1.000000 0.000000 0.000000
vn -1.000000 0.000000 0.000000
vn 1.000000 0.000000 0.000000
vn 1.000000 0.000000 0.000000
vn 1.000000 0.000000 0.000000
vn 1.000000 0.000000 0.000000
vn 1.000000 0.000000 0.000000
vn 1.000000 0.000000 0.000000
vn 0.000000 -0.502943 -0.864319
vn 0.000000 -0.502943 -0.864319
vn 0.000000 -0.502943 -0.864319
vn 0.000000 -0.502943 -0.864319
vn 0.000000 -0.502943 -0.864319
vn 0.000000 -0.502943 -0.864319
vn 0.000000 0.000000 1.000000
vn 0.000000 0.000000 1.000000
vn 0.000000 0.000000 1.000000
vn 0.000000 0.000000 1.000000
vn 0.000000 0.000000 1.000000
vn 0.000000 0.000000 1.000000
vn -1.000000 0.000000 0.000000
vn -1.000000 0.000000 0.000000
vn -1.000000 0.000000 0.000000
vn -1.000000 0.000000 0.000000
vn -1.000000 0.000000 0.000000
vn -1.000000 0.000000 0.000000
vn 1.000000 0.000000 0.000000
vn 1.000000 0.000000 0.000000
vn 1.000000 0.000000 0.000000
vn 1.000000 0.000000 0.000000
vn 1.000000 0.000000 0.000000
vn 1.000000 0.000000 0.000000
vn 0.000000 -0.684097 0.729391
vn 0.000000 -0.684097 0.729391
vn 0.000000 -0.684097 0.729391
vn 0.000000 -0.684097 0.729391
vn 0.000000 -0.684097 0.729391
vn 0.000000 -0.684097 0.729391
s off
g ass:Globot5 group1
usemtl ass:Globot1Mtl
f 1/1/1 2/2/2 3/3/3
f 4/4/4 5/5/5 6/6/6
f 7/7/7 8/8/8 9/9/9
f 10/10/10 11/11/11 12/12/12
f 13/13/13 14/14/14 15/15/15
f 16/16/16 17/17/17 18/18/18
f 19/19/19 20/20/20 21/21/21
f 22/22/22 23/23/23 24/24/24
f 25/25/25 26/26/26 27/27/27
f 27/27/28 28/28/29 25/25/30
f 29/29/31 30/30/32 31/31/33
f 31/31/34 32/32/35 29/29/36
f 33/33/37 34/34/38 35/35/39
f 36/36/40 37/37/41 38/38/42
f 39/39/43 40/40/44 41/41/45
f 42/42/46 43/43/47 44/44/48
f 45/45/49 46/46/50 47/47/51
f 48/48/52 49/49/53 50/50/54
f 51/51/55 52/52/56 53/53/57
f 54/54/58 55/55/59 56/56/60
f 57/57/61 58/58/62 59/59/63
f 60/60/64 61/61/65 62/62/66
f 63/63/67 64/64/68 61/61/69
f 65/65/70 66/66/71 67/67/72
f 68/68/73 69/69/74 70/70/75
f 70/70/76 71/71/77 68/68/78
f 72/72/79 73/73/80 74/74/81
f 74/74/82 75/75/83 72/72/84
f 76/76/85 77/77/86 78/78/87
f 78/78/88 79/79/89 76/76/90
f 80/80/91 81/81/92 82/82/93
f 83/83/94 84/84/95 85/85/96
f 86/86/97 87/87/98 88/88/99
f 89/89/100 90/90/101 91/91/102
f 92/92/103 93/93/104 94/94/105
f 94/94/106 95/95/107 92/92/108
f 96/96/109 97/97/110 98/98/111
f 99/99/112 100/100/113 101/101/114
f 102/102/115 103/103/116 104/104/117
f 104/104/118 105/105/119 102/102/120
f 106/106/121 107/107/122 108/108/123
f 109/109/124 110/110/125 111/111/126
f 112/112/127 113/113/128 114/114/129
f 115/115/130 116/116/131 117/117/132
f 118/118/133 119/119/134 120/120/135
f 121/121/136 122/122/137 123/123/138
f 124/124/139 125/125/140 126/126/141
f 127/127/142 128/128/143 129/129/144
f 130/130/145 131/131/146 132/132/147
f 132/132/148 133/133/149 130/130/150
f 134/134/151 135/135/152 136/136/153
f 137/137/154 138/138/155 139/139/156
f 140/140/157 141/141/158 142/142/159
f 142/142/160 143/143/161 140/140/162
f 118/118/163 144/144/164 145/145/165
f 146/146/166 147/147/167 148/148/168
f 149/149/169 150/150/170 125/125/171
f 151/151/172 152/152/173 153/153/174
f 154/154/175 155/155/176 156/156/177
f 156/156/178 157/157/179 154/154/180
f 158/158/181 159/159/182 160/160/183
f 160/160/184 161/161/185 158/158/186
f 162/162/187 163/163/188 164/164/189
f 165/165/190 166/166/191 167/167/192
f 168/168/193 169/169/194 170/170/195
f 171/171/196 172/172/197 173/173/198
f 174/174/199 175/175/200 176/176/201
f 176/176/202 177/177/203 174/174/204
